# xmcd
#
# Track frame offsets:
# 150
# 15441
# 26943
# 45704
# 65794
# 84742
# 103559
# 123355
# 137137
# 155889
# 168100
# 184185
# 201952
# 218434
# 236549
# 248933
# 267139
# 291174
# 311039
#
# Disc length: 4423 seconds
#
# Revision: 1
# Processed by: cddbd v1.5.2PL0 Copyright (c) Steve Scherf et al.
# Submitted via: TinyPlayer 2.8
#
DISCID=16114513
DTITLE=Various Artist - My Country [Disc 2 of 2]
DYEAR=2009
DGENRE=Country
TTITLE0=Billy Ray Cyrus - Achy Breaky Heart
TTITLE1=Johnny Cash - I Walk the Line
TTITLE2=Dolly Parton and Kenny Rogers - Islands in the Stream
TTITLE3=Trisha Yearwood - There's a New Kid in Town
TTITLE4=Nanci Griffith - From a Distance
TTITLE5=Jimmy Buffett - Margaritaville
TTITLE6=Reba McEntire - Talking in Your Sleep
TTITLE7=Glen Campbell - Witchita Lineman
TTITLE8=Juice Newton - Angel of the Morning
TTITLE9=Patsy Cline and The Jordanaires - Crazy
TTITLE10=Zac Brown Band - Toes
TTITLE11=Billy Currington - Don't
TTITLE12=Emmylou Harris and Gram Parsons - Love Hurts
TTITLE13=Ryan Bingham - Dylan's Hard Rain
TTITLE14=Dr. Hook - When You're in Love with a Beautiful Woman
TTITLE15=Hayes Carll - She Left Me for Jesus
TTITLE16=The Judds - Love Can Build a Bridge
TTITLE17=LeAnn Rimes - How Do I Live
TTITLE18=Shawn Colvin - I Don't Know Why
EXTD=Location:  - UPC: 600753238219 - Catalogue number: 5323821 - Label: Universal Music TV - ASIN: B002US89YE - Release Date: 2009 11 23 - Discogs:  - MUSICBRAINZ_ALBUMID:  - AMG: ;
EXTT0=
EXTT1=
EXTT2=
EXTT3=
EXTT4=
EXTT5=
EXTT6=
EXTT7=
EXTT8=
EXTT9=
EXTT10=
EXTT11=
EXTT12=
EXTT13=
EXTT14=
EXTT15=
EXTT16=
EXTT17=
EXTT18=
PLAYORDER=
